<?xml version="1.0" encoding="iso-8859-1"?>
<!-- Generator: Adobe Illustrator 19.0.0, SVG Export Plug-In . SVG Version: 6.00 Build 0)  -->
<svg xmlns="http://www.w3.org/2000/svg" xmlns:xlink="http://www.w3.org/1999/xlink" version="1.1" id="Capa_1" x="0px" y="0px" viewBox="0 0 60 60" style="enable-background:new 0 0 60 60;" xml:space="preserve" width="512px" height="512px">
<g>
	<polygon points="13.015,22.495 11,22.495 11,28.495 6,28.495 6,30.51 11,30.492 11,45.507 13.018,45.53 13.018,30.517 18,30.499    18,28.495 12.997,28.495  " fill="#FFFFFF"/>
	<rect x="51" y="40.495" width="2" height="18" fill="#FFFFFF"/>
	<rect x="29" y="40.495" width="3" height="18" fill="#FFFFFF"/>
	<rect x="40" y="34.495" width="3" height="24" fill="#FFFFFF"/>
	<path d="M59.292,29.539L25,19.061v39.435h2v-20h7v20h4v-26h7v26h4v-20h6v20h4c0.552,0,1-0.448,1-1v-27   C60,30.055,59.713,29.668,59.292,29.539z" fill="#FFFFFF"/>
	<path d="M0.367,19.721C0.135,19.911,0,20.196,0,20.495v37c0,0.552,0.448,1,1,1h22v-40V1.505c-0.227,0-0.452,0.067-0.633,0.217   L0.367,19.721z M20,32.492l-4.982,0.018v15.042L9,47.484V32.499l-5,0.018v-6.021h5v-6h6.021l-0.018,6H20V32.492z" fill="#FFFFFF"/>
</g>
<g>
</g>
<g>
</g>
<g>
</g>
<g>
</g>
<g>
</g>
<g>
</g>
<g>
</g>
<g>
</g>
<g>
</g>
<g>
</g>
<g>
</g>
<g>
</g>
<g>
</g>
<g>
</g>
<g>
</g>
</svg>
