<?xml version="1.0" encoding="utf-8"?>
<!-- Generator: Adobe Illustrator 16.0.0, SVG Export Plug-In . SVG Version: 6.00 Build 0)  -->
<!DOCTYPE svg PUBLIC "-//W3C//DTD SVG 1.1//EN" "http://www.w3.org/Graphics/SVG/1.1/DTD/svg11.dtd">
<svg version="1.1" id="Layer_1" xmlns="http://www.w3.org/2000/svg" xmlns:xlink="http://www.w3.org/1999/xlink" x="0px" y="0px"
	 width="612px" height="792px" viewBox="0 0 612 792" enable-background="new 0 0 612 792" xml:space="preserve">
<g>
	<polygon fill="#FFFFFF" stroke="#000000" stroke-miterlimit="10" points="327.163,183.997 285.449,183.997 285.449,271.605 
		190.736,271.605 190.736,313.325 285.449,313.325 285.449,492.721 327.163,492.721 327.163,313.325 421.876,313.325 
		421.876,271.605 327.163,271.605 	"/>
	<path fill="#FFFFFF" stroke="#000000" stroke-miterlimit="10" d="M456.136,213.281c16.573,25.588,26.236,56.041,26.236,88.734
		c0,25.233-5.746,49.15-15.985,70.515l25.521,14.253c12.576-25.606,19.67-54.37,19.67-84.768c0-40.233-12.394-77.614-33.544-108.569
		L456.136,213.281z"/>
	<path fill="#FFFFFF" stroke="#000000" stroke-miterlimit="10" d="M530.114,146.279l-21.781,19.725
		c27.564,38.335,43.862,85.288,43.862,136.004c0,37.583-8.978,73.098-24.816,104.585l25.502,14.241
		c18.188-35.71,28.52-76.072,28.52-118.82C581.4,243.759,562.318,189.896,530.114,146.279z"/>
	<path fill="#FFFFFF" stroke="#000000" stroke-miterlimit="10" d="M133.967,193.446c-21.151,30.949-33.544,68.336-33.544,108.569
		c0,30.398,7.093,59.168,19.67,84.768l25.521-14.253c-10.239-21.371-15.985-45.282-15.985-70.515
		c0-32.693,9.669-63.146,26.242-88.734L133.967,193.446z"/>
	<path fill="#FFFFFF" stroke="#000000" stroke-miterlimit="10" d="M103.667,166.01l-21.781-19.725
		C49.682,189.896,30.6,243.759,30.6,302.015c0,42.754,10.331,83.11,28.519,118.827L84.621,406.6
		c-15.838-31.487-24.816-66.996-24.816-104.584C59.805,251.299,76.102,204.346,103.667,166.01z"/>
</g>
</svg>
